<svg xmlns="http://www.w3.org/2000/svg" viewBox="-0.5 -0.5 16 16" fill="white" id="Speaker-None--Streamline-Phosphor" height="16" width="16"><desc>Speaker None Streamline Icon: https://streamlinehq.com</desc><path d="M12.271312499999999 0.207134765625c-0.19398046875 -0.0945234375 -0.42484570312500003 -0.07039453125 -0.59508984375 0.062197265625000005l-4.935984374999999 3.83839453125H3.542162109375c-0.62452734375 0 -1.130806640625 0.506279296875 -1.130806640625 1.130806640625v4.523244140625001c0 0.62452734375 0.506279296875 1.130806640625 1.130806640625 1.130806640625h3.198076171875l4.935984374999999 3.83839453125c0.34362890625000003 0.267134765625 0.8475761718749999 0.062103515625 0.9071074218749999 -0.36905273437499997 0.003521484375 -0.02548828125 0.0052968749999999995 -0.051181640625000004 0.005314453125 -0.07691015625V0.7152949218750001c0.000029296875 -0.216111328125 -0.123134765625 -0.413337890625 -0.31733203125 -0.50816015625ZM3.542162109375 5.238533203125001h2.8270253906250002v4.523244140625001H3.542162109375ZM11.45783203125 13.12876171875 7.5 10.050837890625V4.94947265625l3.9578320312499997 -3.077923828125Z" stroke-width="1"></path></svg>